<?xml version="1.0" standalone="no"?>
<!DOCTYPE svg PUBLIC "-//W3C//DTD SVG 20010904//EN"
 "http://www.w3.org/TR/2001/REC-SVG-20010904/DTD/svg10.dtd">
<svg version="1.0" xmlns="http://www.w3.org/2000/svg"
 width="260.000000pt" height="260.000000pt" viewBox="0 0 260.000000 260.000000"
 preserveAspectRatio="xMidYMid meet">
<metadata>
Created by potrace 1.14, written by Peter Selinger 2001-2017
</metadata>
<g transform="translate(0.000000,260.000000) scale(0.100000,-0.100000)"
fill="#000000" stroke="none">
<path d="M764 2020 c30 -85 68 -193 84 -240 17 -46 30 -86 29 -87 -2 -1 -151
38 -332 87 -181 49 -330 88 -332 87 -1 -2 178 -129 397 -282 220 -154 400
-282 400 -286 0 -3 -176 -131 -390 -284 -215 -153 -389 -280 -386 -282 2 -2
143 34 312 81 169 47 313 86 319 86 7 0 0 -35 -21 -92 -18 -51 -55 -158 -83
-238 l-50 -145 293 299 294 300 178 -185 c98 -101 229 -236 291 -299 l114
-115 -82 238 c-44 131 -79 240 -77 241 1 1 145 -37 318 -85 173 -49 319 -87
324 -86 5 2 -166 128 -380 281 -214 152 -390 280 -392 285 -1 4 177 133 397
286 220 154 399 281 397 282 -1 1 -150 -38 -331 -87 -181 -49 -331 -87 -333
-85 -2 2 33 111 77 242 l82 238 -119 -120 c-65 -66 -196 -201 -291 -299 l-173
-180 -294 300 -293 299 53 -155z"/>
</g>
</svg>
